<!DOCTYPE svg PUBLIC "-//W3C//DTD SVG 1.1//EN" "http://www.w3.org/Graphics/SVG/1.1/DTD/svg11.dtd">
<svg width="40" height="40" viewBox="-7.06 0 72 72" xmlns="http://www.w3.org/2000/svg" fill="#000000">
    <g id="SVGRepo_iconCarrier">
        <g id="Layer_10" transform="translate(-411.059 -251.001)">
            <g id="Group_7">
                <path id="Path_16"
                      d="M442.485,265.235v-2.447h4.475a2.486,2.486,0,0,0,2.486-2.487v-6.814A2.486,2.486,0,0,0,446.96,251H433.039a2.486,2.486,0,0,0-2.486,2.486V260.3a2.486,2.486,0,0,0,2.486,2.487h4.475v2.447a28.972,28.972,0,0,0-26.454,28.817v.014a28.941,28.941,0,1,0,31.426-28.831Zm-6.96-9.262h8.949v1.842h-8.949Zm6.961,61.926V315.18a2.486,2.486,0,0,0-4.972,0v2.72a24.013,24.013,0,0,1-21.354-21.355h2.719a2.486,2.486,0,0,0,0-4.972H416.16a24.012,24.012,0,0,1,21.354-21.351v2.718a2.485,2.485,0,1,0,4.971,0v-2.718a24.011,24.011,0,0,1,21.354,21.352H461.12a2.486,2.486,0,0,0,0,4.972h2.719A24.011,24.011,0,0,1,442.486,317.9Z"
                      fill="#389FD6"/>
                <path id="Path_17"
                      d="M450.783,279.909l-15.371,8.329a2.486,2.486,0,0,0-.995.989l-8.564,15.6a2.487,2.487,0,0,0,3.376,3.376l15.6-8.566a2.467,2.467,0,0,0,.989-1l8.331-15.366a2.485,2.485,0,0,0-3.37-3.37ZM441.8,295.633l-7.481,4.107,4.106-7.479,7.369-3.993Z"
                      fill="#389FD6"/>
            </g>
        </g>
    </g>
</svg>